<svg width="1352" height="343" viewBox="0 0 1352 343" fill="none" xmlns="http://www.w3.org/2000/svg">
<g id="Color=White" clip-path="url(#clip0)">
<path id="Vector" fill-rule="evenodd" clip-rule="evenodd" d="M495.907 104.339C511.914 104.939 525.458 110.336 537.156 120.53V49.771H560.55V170.9C560.858 189.189 554.394 205.08 540.542 218.572C527.305 231.165 511.914 237.761 494.676 237.761C493.752 237.761 492.829 237.761 492.213 237.761C474.359 237.461 458.66 230.565 446.347 217.673C434.034 204.78 427.878 189.189 427.878 171.5C427.878 152.911 434.65 137.02 447.886 123.828C461.123 110.036 477.13 103.739 495.907 104.339ZM494.676 127.425H493.752C482.363 127.425 472.204 131.623 463.893 140.018C455.582 148.413 451.272 158.307 450.964 170.3C450.657 181.994 454.658 192.487 462.97 201.182C470.973 209.877 480.823 214.375 492.213 214.674C493.136 214.674 493.752 214.674 494.676 214.674C506.065 214.674 515.608 210.477 523.919 202.082C532.846 192.787 537.156 182.293 536.54 170.001C536.232 158.307 532.23 148.413 523.919 139.718C515.916 131.323 506.373 127.425 494.676 127.425Z" fill="white"/>
<path id="Vector_2" fill-rule="evenodd" clip-rule="evenodd" d="M662.749 180.794C662.749 189.789 659.363 197.584 652.59 204.48C645.818 211.076 638.123 214.374 628.888 214.374C619.653 214.374 611.957 211.076 605.185 204.78C598.413 198.184 595.027 190.388 595.027 181.094V106.737H571.324V178.995C571.324 195.485 576.865 209.577 587.639 220.671C598.721 231.764 612.573 237.461 629.196 237.461C645.818 237.461 659.67 231.764 670.444 220.671C681.526 209.577 687.067 195.785 687.067 178.995V106.737H663.364V180.794H662.749Z" fill="white"/>
<path id="Vector_3" fill-rule="evenodd" clip-rule="evenodd" d="M762.484 103.74C780.645 104.339 796.345 111.235 808.658 124.428C821.278 137.32 827.435 152.911 826.819 170.601V171.2V234.463H803.732V220.971C791.419 231.765 777.259 237.461 760.945 237.461C760.021 237.461 759.405 237.461 758.482 237.461C740.628 236.862 725.237 229.966 712.924 217.073C700.611 204.181 694.146 188.59 694.146 170.9C694.146 152.311 700.919 136.421 714.155 123.228C727.392 109.436 743.706 102.84 762.484 103.74ZM790.496 138.819C782.492 130.724 772.642 126.526 761.252 126.526C749.247 126.526 739.089 130.724 730.47 139.119C722.159 147.514 717.849 157.408 717.541 169.401C717.233 181.394 721.235 191.588 729.239 200.283C737.242 208.978 746.785 213.475 758.79 214.075C759.405 214.075 760.329 214.075 760.945 214.075C772.334 214.075 781.877 209.877 790.188 201.482C799.115 192.188 803.424 181.694 803.117 169.101C803.117 157.408 798.807 147.514 790.496 138.819Z" fill="white"/>
<path id="Vector_4" fill-rule="evenodd" clip-rule="evenodd" d="M841.288 234.163H864.99V48.8713H841.288V234.163Z" fill="white"/>
<path id="Vector_5" fill-rule="evenodd" clip-rule="evenodd" d="M903.468 119.63C914.857 109.436 928.709 104.039 944.716 103.439C963.494 102.84 979.501 109.136 993.045 122.628C1006.59 135.82 1013.36 152.011 1013.36 170.3C1013.36 187.99 1006.9 203.581 994.584 216.473C982.271 229.366 966.88 236.262 948.718 236.861C947.795 236.861 946.871 236.861 946.255 236.861C929.017 236.861 913.318 230.265 900.389 217.672C886.845 204.48 880.073 188.29 880.381 170V48.8713H903.776V119.63H903.468ZM977.346 200.283C985.657 191.288 989.351 181.394 989.351 169.401C989.043 157.708 984.734 147.813 976.422 139.418C967.803 130.723 957.953 126.826 945.948 126.826C934.558 126.826 924.708 131.023 916.704 139.118C908.393 147.813 904.083 157.708 904.083 169.401C903.776 181.993 907.777 192.487 916.704 201.782C925.631 210.776 936.097 214.974 948.102 214.374C959.8 213.475 969.342 208.978 977.346 200.283Z" fill="white"/>
<path id="Vector_6" fill-rule="evenodd" clip-rule="evenodd" d="M1037.06 122.928C1050.3 109.436 1066.61 103.139 1085.08 103.739C1103.25 104.339 1118.64 111.235 1130.95 124.427C1143.26 137.319 1149.73 152.91 1149.73 170.6C1149.73 188.889 1142.96 204.78 1129.41 218.272C1116.48 230.865 1101.4 237.461 1083.85 237.461C1082.93 237.461 1082.01 237.461 1081.39 237.461C1063.54 237.161 1048.15 230.265 1035.52 217.372C1023.21 204.48 1017.05 188.889 1017.05 171.2C1016.75 152.011 1023.52 136.12 1037.06 122.928ZM1084.16 126.826H1083.24C1071.85 126.826 1062 131.023 1053.38 139.418C1045.07 147.813 1040.76 157.707 1040.45 169.7C1040.14 181.693 1044.14 191.887 1052.15 200.582C1060.15 209.277 1070 213.775 1081.39 214.074C1082.31 214.074 1082.93 214.074 1083.85 214.074C1095.24 214.074 1104.78 209.877 1113.1 201.482C1122.02 192.187 1126.33 181.693 1126.02 169.401C1125.72 157.707 1121.41 147.813 1113.1 139.118C1105.09 130.723 1095.55 126.826 1084.16 126.826Z" fill="white"/>
<path id="Vector_7" fill-rule="evenodd" clip-rule="evenodd" d="M1175.89 122.928C1189.13 109.436 1205.44 103.139 1223.91 103.739C1242.08 104.339 1257.47 111.235 1269.78 124.427C1282.09 137.319 1288.56 152.91 1288.56 170.6C1288.56 188.889 1281.79 204.78 1268.24 218.272C1255.31 230.865 1240.23 237.461 1222.68 237.461C1221.76 237.461 1220.84 237.461 1220.22 237.461C1202.37 237.161 1186.98 230.265 1174.35 217.372C1162.04 204.48 1155.88 188.889 1155.88 171.2C1155.58 152.011 1162.35 136.12 1175.89 122.928ZM1222.99 126.826H1222.07C1210.68 126.826 1200.83 131.023 1192.21 139.418C1183.9 147.813 1179.59 157.707 1179.28 169.7C1178.97 181.693 1182.97 191.887 1190.98 200.582C1198.98 209.277 1208.83 213.775 1220.22 214.074C1221.14 214.074 1221.76 214.074 1222.68 214.074C1234.07 214.074 1243.61 209.877 1251.93 201.482C1260.85 192.187 1265.16 181.693 1264.85 169.401C1264.55 157.707 1260.24 147.813 1251.93 139.118C1243.92 130.723 1234.38 126.826 1222.99 126.826Z" fill="white"/>
<path id="Vector_8" fill-rule="evenodd" clip-rule="evenodd" d="M1327.04 110.035V50.6702H1304.87V110.035H1283.02V131.923H1304.87V238.36H1327.04V131.923H1348.89V110.035H1327.04Z" fill="white"/>
<path id="Vector_9" fill-rule="evenodd" clip-rule="evenodd" d="M445.731 292.928H457.736C478.361 292.928 478.361 263.546 457.736 263.546C454.35 263.546 450.964 263.546 447.886 263.546C444.5 263.546 441.114 263.546 438.035 263.546V305.221H446.039V292.928H445.731ZM457.736 285.733H445.731V271.041H457.736C467.587 271.041 467.894 285.733 457.736 285.733Z" fill="white"/>
<path id="Vector_10" fill-rule="evenodd" clip-rule="evenodd" d="M568.245 297.426H590.409L594.103 305.221H602.722L583.945 263.546H575.325L556.548 305.221H565.167L568.245 297.426ZM571.324 289.93L579.019 272.241L586.715 289.93H571.324Z" fill="white"/>
<path id="Vector_11" fill-rule="evenodd" clip-rule="evenodd" d="M715.694 305.221H725.236V304.622L712.616 290.53C720.619 289.031 723.389 283.034 723.389 277.338C723.389 270.142 718.156 263.546 708.306 263.546C704.92 263.546 701.534 263.546 698.148 263.546C694.762 263.546 691.376 263.546 687.99 263.546V305.221H695.993V291.429H703.689L715.694 305.221ZM695.685 284.234V271.041H707.69C712.616 271.041 714.77 274.339 714.77 277.637C714.77 280.935 712.616 284.234 707.69 284.234H695.685Z" fill="white"/>
<path id="Vector_12" fill-rule="evenodd" clip-rule="evenodd" d="M822.818 270.741H809.582V263.546C821.587 263.546 832.053 263.546 844.366 263.546V270.741H831.129V305.221H823.126V270.741H822.818Z" fill="white"/>
<path id="Vector_13" fill-rule="evenodd" clip-rule="evenodd" d="M958.569 263.546H966.572V305.221H961.647L939.484 277.038V304.921H931.48V263.546H937.945L958.569 289.331V263.546Z" fill="white"/>
<path id="Vector_14" fill-rule="evenodd" clip-rule="evenodd" d="M1086.93 305.221H1055.53C1055.53 291.429 1055.53 277.637 1055.53 263.546H1086.93V271.041H1063.23V280.636H1086.01V287.831H1063.23V297.426H1086.93V305.221Z" fill="white"/>
<path id="Vector_15" fill-rule="evenodd" clip-rule="evenodd" d="M1202.67 305.221H1212.22V304.622L1199.6 290.53C1207.6 289.031 1210.37 283.034 1210.37 277.338C1210.37 270.142 1205.14 263.546 1195.29 263.546C1191.9 263.546 1188.51 263.546 1185.13 263.546C1181.74 263.546 1178.36 263.546 1174.97 263.546V305.221H1182.97V291.429H1190.67L1202.67 305.221ZM1182.67 284.234V271.041H1194.67C1199.6 271.041 1201.75 274.339 1201.75 277.637C1201.75 280.935 1199.6 284.234 1194.67 284.234H1182.67Z" fill="white"/>
<path id="Vector_16" fill-rule="evenodd" clip-rule="evenodd" d="M1325.19 273.74C1323.65 271.341 1319.65 269.242 1315.34 269.242C1309.49 269.242 1306.72 271.641 1306.72 274.639C1306.72 278.237 1311.03 279.137 1316.26 279.736C1325.19 280.936 1333.19 283.034 1333.19 292.929C1333.19 302.223 1324.88 306.121 1315.65 306.121C1307.03 306.121 1300.56 303.422 1297.18 295.927L1303.64 292.629C1305.49 297.126 1310.41 299.225 1315.65 299.225C1320.57 299.225 1325.19 297.426 1325.19 292.929C1325.19 289.031 1321.19 287.532 1315.34 286.932C1306.72 286.033 1298.72 283.634 1298.72 274.339C1298.72 265.944 1307.34 262.346 1315.03 262.346C1321.5 262.346 1328.27 264.145 1331.65 270.742L1325.19 273.74Z" fill="white"/>
<g id="Group">
<path id="Vector_17" fill-rule="evenodd" clip-rule="evenodd" d="M276.394 174.637H301.908C301.908 175.852 301.604 177.371 301.604 178.585C300.085 196.202 292.796 211.692 280.039 224.449C265.46 239.331 247.844 246.621 227.798 245.71C210.485 245.102 195.602 239.028 183.149 227.79V342.296C179.201 342.6 174.949 342.6 171 342.6C166.444 342.6 162.192 342.296 157.94 341.992C155.814 341.992 153.991 341.688 151.865 341.385C67.4281 332.273 1.51865 261.2 0 174.637C0 173.726 0 172.511 0 171.6C0 170.689 0 169.474 0 168.562C1.51865 81.9994 67.7318 10.9266 152.169 1.51099V24.5945C80.4885 33.7064 24.2984 94.4523 22.7798 168.562C22.7798 169.474 22.7798 170.689 22.7798 171.6C22.7798 172.511 22.7798 173.726 22.7798 174.637C24.2984 248.443 80.1848 309.493 151.865 318.605C153.991 318.909 155.814 319.212 157.94 319.212V235.99C160.673 233.864 163.407 231.434 165.837 229.005C177.075 218.07 184.061 205.314 187.402 191.038C189.831 196.506 193.172 201.669 197.425 206.225C206.233 215.641 216.56 219.893 229.316 219.893H230.228C242.68 219.893 253.615 215.337 262.423 205.921C269.409 198.632 273.965 190.735 275.483 181.015C275.787 178.889 276.091 176.763 276.091 174.637C276.395 174.941 276.394 174.941 276.394 174.637Z" fill="white"/>
<path id="Vector_18" fill-rule="evenodd" clip-rule="evenodd" d="M342 168.562C340.481 81.9992 274.268 10.9264 189.831 1.5108C187.705 1.20707 185.883 1.20707 183.757 0.903339C179.504 0.599609 175.252 0.599609 171 0.599609C166.748 0.599609 162.495 0.599609 158.243 0.903339V115.41C145.79 104.171 130.604 98.0969 113.595 97.4894C93.5487 96.882 75.9324 103.868 61.3533 118.751C52.5451 127.862 46.1668 138.189 42.8258 149.427C42.522 150.338 42.522 151.25 42.2183 152.161C41.9146 153.072 41.6109 153.983 41.6109 154.894C41.3071 156.413 41.0034 157.932 40.6997 159.754C40.6997 160.058 40.6997 160.362 40.3959 160.969C40.3959 161.88 40.0922 163.095 40.0922 164.006C40.0922 164.614 40.0922 165.221 39.7885 165.829C39.7885 166.74 39.7885 167.955 39.4847 168.866H64.9981C64.9981 167.651 65.3018 166.436 65.3018 164.917C65.3018 164.006 65.6055 163.095 65.6055 162.488C65.6055 162.488 65.6055 162.488 65.6055 162.184C65.6055 161.273 65.9093 160.362 66.213 159.754C66.5167 157.932 67.1242 156.413 67.7317 154.591C68.0354 153.679 68.3391 153.072 68.6428 152.161C68.9466 151.25 69.2503 150.642 69.8578 149.731C71.9839 145.175 75.0212 140.923 78.9697 137.278C88.0816 128.166 99.0159 123.306 111.165 123.306H112.076C124.833 123.306 135.16 127.862 143.968 137.278C147.613 141.227 150.65 145.479 152.776 149.731C153.08 150.642 153.687 151.553 153.991 152.465C154.295 151.553 154.295 150.642 154.599 149.731C157.94 136.671 164.925 124.825 175.556 114.498C177.986 112.068 180.719 109.639 183.453 107.513V23.9868C185.579 24.2905 187.401 24.2905 189.527 24.5943C261.512 33.7062 317.398 94.7559 318.917 168.562C318.917 169.473 318.917 170.688 318.917 171.6C318.917 172.511 318.917 173.726 318.917 174.637C317.398 248.747 261.208 309.797 188.92 318.909V341.688C273.661 332.576 340.178 261.504 341.696 174.637C341.696 173.726 341.696 172.511 341.696 171.6C342 170.688 342 169.473 342 168.562Z" fill="white"/>
<path id="Vector_19" fill-rule="evenodd" clip-rule="evenodd" d="M281.862 119.662C268.498 105.387 251.489 97.7933 232.05 97.1858C231.139 97.1858 230.228 97.1858 229.317 97.1858C226.887 97.1858 224.457 97.1858 222.027 97.4895C221.116 97.4895 220.205 97.7933 219.294 97.7933C217.167 98.097 215.345 98.4007 213.219 99.0082C211.093 99.6156 209.27 100.223 207.144 100.831C206.841 100.831 206.841 100.831 206.537 101.134C196.818 104.475 187.706 110.246 179.201 118.447C170.089 127.559 164.015 138.189 160.37 149.427C158.244 156.413 157.636 162.791 157.333 168.562C157.333 170.688 157.029 172.511 157.029 174.637C156.725 179.193 156.118 183.445 154.903 188.001C151.258 199.846 142.754 209.262 132.123 215.033C126.048 218.374 119.366 219.893 112.381 219.893C111.469 219.893 110.862 219.893 109.951 219.893C97.194 219.589 86.8672 214.426 78.059 204.706C70.162 195.898 65.9098 185.875 65.3023 174.333H39.789C40.3965 193.164 47.0785 209.566 59.8352 223.234C73.1993 237.509 89.9045 245.102 109.343 245.71C110.254 245.71 111.166 245.71 112.077 245.71C114.507 245.71 116.936 245.71 119.366 245.406C120.278 245.406 121.189 245.102 122.1 245.102C124.226 244.799 126.048 244.495 128.175 243.887C128.782 243.887 129.389 243.584 129.997 243.584C130.301 243.584 130.604 243.584 130.908 243.28C131.516 242.976 132.427 242.976 133.034 242.672C134.553 242.065 136.375 241.458 137.894 240.85C146.398 237.205 154.295 232.042 161.889 224.752C172.519 214.122 180.416 201.061 182.542 186.179C183.15 182.534 183.15 178.585 183.453 174.637C183.453 172.511 183.757 170.688 183.757 168.562C184.061 166.132 184.365 163.399 184.668 160.969C188.009 143.353 201.07 128.47 218.686 123.914C222.027 123.003 225.368 122.699 228.709 122.699C229.62 122.699 230.228 122.699 231.139 122.699C243.896 123.003 254.223 128.166 263.031 137.886C270.928 146.694 275.18 156.717 275.787 168.259H301.301C301.301 149.731 294.619 133.33 281.862 119.662Z" fill="white"/>
</g>
</g>
<defs>
<clipPath id="clip0">
<rect width="1351.35" height="341.8" fill="white" transform="translate(0 0.599609)"/>
</clipPath>
</defs>
</svg>
