<svg width="1352" height="343" viewBox="0 0 1352 343" fill="none" xmlns="http://www.w3.org/2000/svg">
<g id="Color=Solid blue" clip-path="url(#clip0)">
<path id="Vector" fill-rule="evenodd" clip-rule="evenodd" d="M495.907 104.539C511.914 105.139 525.458 110.536 537.156 120.73V49.9712H560.55V171.1C560.858 189.39 554.394 205.28 540.542 218.772C527.305 231.365 511.914 237.961 494.676 237.961C493.752 237.961 492.829 237.961 492.213 237.961C474.359 237.661 458.66 230.765 446.347 217.873C434.034 204.98 427.878 189.389 427.878 171.7C427.878 153.111 434.65 137.22 447.886 124.028C461.123 110.236 477.13 103.94 495.907 104.539ZM494.676 127.626H493.752C482.363 127.626 472.204 131.823 463.893 140.218C455.582 148.613 451.272 158.508 450.964 170.501C450.657 182.194 454.658 192.688 462.97 201.382C470.973 210.077 480.823 214.575 492.213 214.875C493.136 214.875 493.752 214.875 494.676 214.875C506.065 214.875 515.608 210.677 523.919 202.282C532.846 192.987 537.156 182.494 536.54 170.201C536.232 158.508 532.23 148.613 523.919 139.918C515.916 131.523 506.373 127.626 494.676 127.626Z" fill="#005AF0"/>
<path id="Vector_2" fill-rule="evenodd" clip-rule="evenodd" d="M662.749 180.994C662.749 189.989 659.363 197.784 652.59 204.68C645.818 211.276 638.123 214.574 628.888 214.574C619.653 214.574 611.957 211.276 605.185 204.98C598.413 198.384 595.027 190.589 595.027 181.294V106.938H571.324V179.195C571.324 195.686 576.865 209.777 587.639 220.871C598.721 231.964 612.573 237.661 629.196 237.661C645.818 237.661 659.67 231.964 670.444 220.871C681.526 209.777 687.067 195.985 687.067 179.195V106.938H663.364V180.994H662.749Z" fill="#005AF0"/>
<path id="Vector_3" fill-rule="evenodd" clip-rule="evenodd" d="M762.484 103.94C780.645 104.54 796.345 111.436 808.658 124.628C821.278 137.52 827.435 153.111 826.819 170.801V171.4V234.663H803.732V221.171C791.419 231.965 777.259 237.662 760.945 237.662C760.021 237.662 759.405 237.662 758.482 237.662C740.628 237.062 725.237 230.166 712.924 217.273C700.611 204.381 694.146 188.79 694.146 171.101C694.146 152.511 700.919 136.621 714.155 123.428C727.392 109.637 743.706 103.04 762.484 103.94ZM790.496 139.019C782.492 130.924 772.642 126.727 761.252 126.727C749.247 126.727 739.089 130.924 730.47 139.319C722.159 147.714 717.849 157.608 717.541 169.601C717.233 181.594 721.235 191.788 729.239 200.483C737.242 209.178 746.785 213.676 758.79 214.275C759.405 214.275 760.329 214.275 760.945 214.275C772.334 214.275 781.877 210.078 790.188 201.683C799.115 192.388 803.424 181.894 803.117 169.302C803.117 157.608 798.807 147.714 790.496 139.019Z" fill="#005AF0"/>
<path id="Vector_4" fill-rule="evenodd" clip-rule="evenodd" d="M841.288 234.363H864.99V49.0715H841.288V234.363Z" fill="#005AF0"/>
<path id="Vector_5" fill-rule="evenodd" clip-rule="evenodd" d="M903.468 119.83C914.857 109.636 928.709 104.239 944.716 103.64C963.494 103.04 979.501 109.336 993.045 122.828C1006.59 136.021 1013.36 152.211 1013.36 170.5C1013.36 188.19 1006.9 203.781 994.584 216.673C982.271 229.566 966.88 236.462 948.718 237.061C947.795 237.061 946.871 237.061 946.255 237.061C929.017 237.061 913.318 230.465 900.389 217.873C886.845 204.68 880.073 188.49 880.381 170.201V49.0715H903.776V119.83H903.468ZM977.346 200.483C985.657 191.488 989.351 181.594 989.351 169.601C989.043 157.908 984.734 148.014 976.422 139.618C967.803 130.924 957.953 127.026 945.948 127.026C934.558 127.026 924.708 131.223 916.704 139.319C908.393 148.014 904.083 157.908 904.083 169.601C903.776 182.194 907.777 192.687 916.704 201.982C925.631 210.977 936.097 215.174 948.102 214.575C959.8 213.675 969.342 209.178 977.346 200.483Z" fill="#005AF0"/>
<path id="Vector_6" fill-rule="evenodd" clip-rule="evenodd" d="M1037.06 123.128C1050.3 109.636 1066.61 103.34 1085.08 103.939C1103.25 104.539 1118.64 111.435 1130.95 124.627C1143.26 137.52 1149.73 153.11 1149.73 170.8C1149.73 189.089 1142.96 204.98 1129.41 218.472C1116.48 231.065 1101.4 237.661 1083.85 237.661C1082.93 237.661 1082.01 237.661 1081.39 237.661C1063.54 237.361 1048.15 230.465 1035.52 217.573C1023.21 204.68 1017.05 189.089 1017.05 171.4C1016.75 152.211 1023.52 136.32 1037.06 123.128ZM1084.16 127.026H1083.24C1071.85 127.026 1062 131.223 1053.38 139.618C1045.07 148.013 1040.76 157.908 1040.45 169.901C1040.14 181.894 1044.14 192.088 1052.15 200.782C1060.15 209.477 1070 213.975 1081.39 214.275C1082.31 214.275 1082.93 214.275 1083.85 214.275C1095.24 214.275 1104.78 210.077 1113.1 201.682C1122.02 192.387 1126.33 181.894 1126.02 169.601C1125.72 157.908 1121.41 148.013 1113.1 139.319C1105.09 130.923 1095.55 127.026 1084.16 127.026Z" fill="#005AF0"/>
<path id="Vector_7" fill-rule="evenodd" clip-rule="evenodd" d="M1175.89 123.128C1189.13 109.636 1205.44 103.34 1223.91 103.939C1242.08 104.539 1257.47 111.435 1269.78 124.627C1282.09 137.52 1288.56 153.11 1288.56 170.8C1288.56 189.089 1281.79 204.98 1268.24 218.472C1255.31 231.065 1240.23 237.661 1222.68 237.661C1221.76 237.661 1220.84 237.661 1220.22 237.661C1202.37 237.361 1186.98 230.465 1174.35 217.573C1162.04 204.68 1155.88 189.089 1155.88 171.4C1155.58 152.211 1162.35 136.32 1175.89 123.128ZM1222.99 127.026H1222.07C1210.68 127.026 1200.83 131.223 1192.21 139.618C1183.9 148.013 1179.59 157.908 1179.28 169.901C1178.97 181.894 1182.97 192.088 1190.98 200.782C1198.98 209.477 1208.83 213.975 1220.22 214.275C1221.14 214.275 1221.76 214.275 1222.68 214.275C1234.07 214.275 1243.61 210.077 1251.93 201.682C1260.85 192.387 1265.16 181.894 1264.85 169.601C1264.55 157.908 1260.24 148.013 1251.93 139.319C1243.92 130.923 1234.38 127.026 1222.99 127.026Z" fill="#005AF0"/>
<path id="Vector_8" fill-rule="evenodd" clip-rule="evenodd" d="M1327.04 110.236V50.8704H1304.87V110.236H1283.02V132.123H1304.87V238.56H1327.04V132.123H1348.89V110.236H1327.04Z" fill="#005AF0"/>
<path id="Vector_9" fill-rule="evenodd" clip-rule="evenodd" d="M445.731 293.129H457.736C478.361 293.129 478.361 263.746 457.736 263.746C454.35 263.746 450.964 263.746 447.886 263.746C444.5 263.746 441.114 263.746 438.035 263.746V305.421H446.039V293.129H445.731ZM457.736 285.933H445.731V271.241H457.736C467.587 271.241 467.894 285.933 457.736 285.933Z" fill="#00ABFF"/>
<path id="Vector_10" fill-rule="evenodd" clip-rule="evenodd" d="M568.245 297.626H590.409L594.103 305.421H602.722L583.945 263.746H575.325L556.548 305.421H565.167L568.245 297.626ZM571.324 290.13L579.019 272.441L586.715 290.13H571.324Z" fill="#00ABFF"/>
<path id="Vector_11" fill-rule="evenodd" clip-rule="evenodd" d="M715.694 305.421H725.236V304.822L712.616 290.73C720.619 289.231 723.389 283.234 723.389 277.538C723.389 270.342 718.156 263.746 708.306 263.746C704.92 263.746 701.534 263.746 698.148 263.746C694.762 263.746 691.376 263.746 687.99 263.746V305.421H695.993V291.63H703.689L715.694 305.421ZM695.685 284.434V271.241H707.69C712.616 271.241 714.77 274.54 714.77 277.838C714.77 281.136 712.616 284.434 707.69 284.434H695.685Z" fill="#00ABFF"/>
<path id="Vector_12" fill-rule="evenodd" clip-rule="evenodd" d="M822.818 270.942H809.582V263.746C821.587 263.746 832.053 263.746 844.366 263.746V270.942H831.129V305.421H823.126V270.942H822.818Z" fill="#00ABFF"/>
<path id="Vector_13" fill-rule="evenodd" clip-rule="evenodd" d="M958.569 263.746H966.572V305.421H961.647L939.484 277.238V305.122H931.48V263.746H937.945L958.569 289.531V263.746Z" fill="#00ABFF"/>
<path id="Vector_14" fill-rule="evenodd" clip-rule="evenodd" d="M1086.93 305.421H1055.53C1055.53 291.63 1055.53 277.838 1055.53 263.746H1086.93V271.241H1063.23V280.836H1086.01V288.032H1063.23V297.626H1086.93V305.421Z" fill="#00ABFF"/>
<path id="Vector_15" fill-rule="evenodd" clip-rule="evenodd" d="M1202.67 305.421H1212.22V304.822L1199.6 290.73C1207.6 289.231 1210.37 283.234 1210.37 277.538C1210.37 270.342 1205.14 263.746 1195.29 263.746C1191.9 263.746 1188.51 263.746 1185.13 263.746C1181.74 263.746 1178.36 263.746 1174.97 263.746V305.421H1182.97V291.63H1190.67L1202.67 305.421ZM1182.67 284.434V271.241H1194.67C1199.6 271.241 1201.75 274.54 1201.75 277.838C1201.75 281.136 1199.6 284.434 1194.67 284.434H1182.67Z" fill="#00ABFF"/>
<path id="Vector_16" fill-rule="evenodd" clip-rule="evenodd" d="M1325.19 273.94C1323.65 271.541 1319.65 269.443 1315.34 269.443C1309.49 269.443 1306.72 271.841 1306.72 274.839C1306.72 278.437 1311.03 279.337 1316.26 279.936C1325.19 281.136 1333.19 283.235 1333.19 293.129C1333.19 302.423 1324.88 306.321 1315.65 306.321C1307.03 306.321 1300.56 303.623 1297.18 296.127L1303.64 292.829C1305.49 297.326 1310.41 299.425 1315.65 299.425C1320.57 299.425 1325.19 297.626 1325.19 293.129C1325.19 289.231 1321.19 287.732 1315.34 287.132C1306.72 286.233 1298.72 283.834 1298.72 274.54C1298.72 266.145 1307.34 262.547 1315.03 262.547C1321.5 262.547 1328.27 264.346 1331.65 270.942L1325.19 273.94Z" fill="#00ABFF"/>
<g id="Group">
<path id="Vector_17" fill-rule="evenodd" clip-rule="evenodd" d="M276.394 174.837H301.908C301.908 176.052 301.604 177.571 301.604 178.786C300.085 196.402 292.796 211.892 280.039 224.649C265.46 239.532 247.844 246.821 227.798 245.91C210.485 245.303 195.602 239.228 183.149 227.99V342.496C179.201 342.8 174.949 342.8 171 342.8C166.444 342.8 162.192 342.496 157.94 342.192C155.814 342.192 153.991 341.889 151.865 341.585C67.4281 332.473 1.51865 261.4 0 174.837C0 173.926 0 172.711 0 171.8C0 170.889 0 169.674 0 168.763C1.51865 82.1996 67.7318 11.1268 152.169 1.71118V24.7947C80.4885 33.9065 24.2984 94.6525 22.7798 168.763C22.7798 169.674 22.7798 170.889 22.7798 171.8C22.7798 172.711 22.7798 173.926 22.7798 174.837C24.2984 248.644 80.1848 309.693 151.865 318.805C153.991 319.109 155.814 319.413 157.94 319.413V236.191C160.673 234.064 163.407 231.635 165.837 229.205C177.075 218.271 184.061 205.514 187.402 191.239C189.831 196.706 193.172 201.869 197.425 206.425C206.233 215.841 216.56 220.093 229.316 220.093H230.228C242.68 220.093 253.615 215.537 262.423 206.121C269.409 198.832 273.965 190.935 275.483 181.216C275.787 179.089 276.091 176.963 276.091 174.837C276.395 175.141 276.394 175.141 276.394 174.837Z" fill="#005AF0"/>
<path id="Vector_18" fill-rule="evenodd" clip-rule="evenodd" d="M342 168.762C340.481 82.1994 274.268 11.1266 189.831 1.71099C187.705 1.40726 185.883 1.40726 183.757 1.10353C179.504 0.799805 175.252 0.799805 171 0.799805C166.748 0.799805 162.495 0.799805 158.243 1.10353V115.61C145.79 104.372 130.604 98.2971 113.595 97.6896C93.5487 97.0822 75.9324 104.068 61.3533 118.951C52.5451 128.063 46.1668 138.389 42.8258 149.627C42.522 150.539 42.522 151.45 42.2183 152.361C41.9146 153.272 41.6109 154.183 41.6109 155.095C41.3071 156.613 41.0034 158.132 40.6997 159.954C40.6997 160.258 40.6997 160.562 40.3959 161.169C40.3959 162.08 40.0922 163.295 40.0922 164.206C40.0922 164.814 40.0922 165.421 39.7885 166.029C39.7885 166.94 39.7885 168.155 39.4847 169.066H64.9981C64.9981 167.851 65.3018 166.636 65.3018 165.118C65.3018 164.206 65.6055 163.295 65.6055 162.688C65.6055 162.688 65.6055 162.688 65.6055 162.384C65.6055 161.473 65.9093 160.562 66.213 159.954C66.5167 158.132 67.1242 156.613 67.7317 154.791C68.0354 153.88 68.3391 153.272 68.6428 152.361C68.9466 151.45 69.2503 150.842 69.8578 149.931C71.9839 145.375 75.0212 141.123 78.9697 137.478C88.0816 128.366 99.0159 123.507 111.165 123.507H112.076C124.833 123.507 135.16 128.063 143.968 137.478C147.613 141.427 150.65 145.679 152.776 149.931C153.08 150.842 153.687 151.754 153.991 152.665C154.295 151.754 154.295 150.842 154.599 149.931C157.94 136.871 164.925 125.025 175.556 114.699C177.986 112.269 180.719 109.839 183.453 107.713V24.187C185.579 24.4907 187.401 24.4907 189.527 24.7945C261.512 33.9064 317.398 94.9561 318.917 168.762C318.917 169.674 318.917 170.889 318.917 171.8C318.917 172.711 318.917 173.926 318.917 174.837C317.398 248.947 261.208 309.997 188.92 319.109V341.888C273.661 332.777 340.178 261.704 341.696 174.837C341.696 173.926 341.696 172.711 341.696 171.8C342 170.889 342 169.674 342 168.762Z" fill="#005AF0"/>
<path id="Vector_19" fill-rule="evenodd" clip-rule="evenodd" d="M281.862 119.862C268.498 105.587 251.489 97.9934 232.05 97.386C231.139 97.386 230.228 97.386 229.317 97.386C226.887 97.386 224.457 97.386 222.027 97.6897C221.116 97.6897 220.205 97.9934 219.294 97.9934C217.167 98.2972 215.345 98.6009 213.219 99.2084C211.093 99.8158 209.27 100.423 207.144 101.031C206.841 101.031 206.841 101.031 206.537 101.334C196.818 104.676 187.706 110.446 179.201 118.647C170.089 127.759 164.015 138.39 160.37 149.628C158.244 156.613 157.636 162.992 157.333 168.763C157.333 170.889 157.029 172.711 157.029 174.837C156.725 179.393 156.118 183.645 154.903 188.201C151.258 200.047 142.754 209.462 132.123 215.233C126.048 218.574 119.366 220.093 112.381 220.093C111.469 220.093 110.862 220.093 109.951 220.093C97.194 219.789 86.8672 214.626 78.059 204.906C70.162 196.098 65.9098 186.075 65.3023 174.533H39.789C40.3965 193.365 47.0785 209.766 59.8352 223.434C73.1993 237.709 89.9045 245.302 109.343 245.91C110.254 245.91 111.166 245.91 112.077 245.91C114.507 245.91 116.936 245.91 119.366 245.606C120.278 245.606 121.189 245.302 122.1 245.302C124.226 244.999 126.048 244.695 128.175 244.088C128.782 244.088 129.389 243.784 129.997 243.784C130.301 243.784 130.604 243.784 130.908 243.48C131.516 243.176 132.427 243.176 133.034 242.873C134.553 242.265 136.375 241.658 137.894 241.05C146.398 237.405 154.295 232.242 161.889 224.953C172.519 214.322 180.416 201.262 182.542 186.379C183.15 182.734 183.15 178.786 183.453 174.837C183.453 172.711 183.757 170.889 183.757 168.763C184.061 166.333 184.365 163.599 184.668 161.169C188.009 143.553 201.07 128.67 218.686 124.114C222.027 123.203 225.368 122.899 228.709 122.899C229.62 122.899 230.228 122.899 231.139 122.899C243.896 123.203 254.223 128.366 263.031 138.086C270.928 146.894 275.18 156.917 275.787 168.459H301.301C301.301 149.931 294.619 133.53 281.862 119.862Z" fill="#005AF0"/>
</g>
</g>
<defs>
<clipPath id="clip0">
<rect width="1351.35" height="341.8" fill="white" transform="translate(0 0.799805)"/>
</clipPath>
</defs>
</svg>
